<?xml version="1.0" encoding="UTF-8"?>
<svg xmlns="http://www.w3.org/2000/svg" xmlns:xlink="http://www.w3.org/1999/xlink" width="120px" height="60px" viewBox="0 0 120 60" version="1.1">
<g id="surface1">
<path style=" stroke:none;fill-rule:nonzero;fill:rgb(13.333333%,10.588235%,18.431373%);fill-opacity:1;" d="M 0 0.238281 C 39.601562 0.238281 79.199219 0.238281 120 0.238281 C 120 19.882812 120 39.523438 120 59.761719 C 80.398438 59.761719 40.800781 59.761719 0 59.761719 C 0 40.117188 0 20.476562 0 0.238281 Z M 0 0.238281 "/>
<path style=" stroke:none;fill-rule:nonzero;fill:rgb(99.215686%,99.215686%,99.215686%);fill-opacity:1;" d="M 0 0.238281 C 39.601562 0.238281 79.199219 0.238281 120 0.238281 C 120 19.882812 120 39.523438 120 59.761719 C 80.398438 59.761719 40.800781 59.761719 0 59.761719 C 0 40.117188 0 20.476562 0 0.238281 Z M 17.953125 13.769531 C 8.042969 19.5 3.675781 25.785156 4.535156 33.148438 C 5.03125 35.53125 6.648438 37.714844 8.503906 39.921875 C 8.835938 40.316406 9.167969 40.714844 9.507812 41.125 C 15.3125 47.308594 26.960938 51.871094 39.980469 54.308594 C 53.171875 56.378906 67.609375 55.714844 80 52.867188 C 93.203125 49.359375 102.101562 44.105469 106.886719 37.28125 C 108.082031 34.992188 108.160156 32.6875 108.1875 30.335938 C 108.199219 29.722656 108.199219 29.722656 108.207031 29.09375 C 107.988281 23.507812 103.6875 18.566406 96.023438 14.332031 C 95.207031 13.996094 94.386719 13.660156 93.542969 13.316406 C 92.933594 13.035156 92.324219 12.753906 91.695312 12.464844 C 86.742188 10.230469 81.863281 8.714844 75.589844 7.453125 C 74.945312 7.316406 74.300781 7.175781 73.632812 7.03125 C 54.3125 3.371094 31.78125 6.753906 17.953125 13.769531 Z M 17.953125 13.769531 "/>
<path style=" stroke:none;fill-rule:nonzero;fill:rgb(95.686275%,95.686275%,95.686275%);fill-opacity:1;" d="M 20.789062 18.726562 C 22.660156 18.726562 24.527344 18.726562 26.457031 18.726562 C 26.457031 20.8125 26.457031 22.894531 26.457031 25.039062 C 27.4375 25.019531 28.414062 24.996094 29.425781 24.976562 C 30.71875 24.960938 32.011719 24.941406 33.308594 24.929688 C 34.273438 24.902344 34.273438 24.902344 35.257812 24.882812 C 38.566406 24.851562 40.273438 24.90625 42.917969 25.890625 C 45.832031 27.75 45.59375 29.445312 45.648438 31.691406 C 45.675781 32.050781 45.703125 32.410156 45.734375 32.78125 C 45.789062 35.222656 45.070312 36.65625 41.574219 38.566406 C 38.292969 39.089844 35.644531 39.09375 32.183594 39.101562 C 31.027344 39.109375 29.867188 39.117188 28.675781 39.121094 C 25.726562 39.023438 24.136719 38.90625 21.730469 38.117188 C 20.109375 36.566406 20.675781 34.785156 20.695312 33.082031 C 20.695312 32.671875 20.699219 32.265625 20.699219 31.84375 C 20.703125 30.53125 20.714844 29.222656 20.726562 27.914062 C 20.734375 27.027344 20.738281 26.140625 20.742188 25.253906 C 20.75 23.078125 20.769531 20.902344 20.789062 18.726562 Z M 20.789062 18.726562 "/>
<path style=" stroke:none;fill-rule:nonzero;fill:rgb(95.294118%,94.901961%,95.294118%);fill-opacity:1;" d="M 83.148438 24.757812 C 83.808594 24.75 84.46875 24.742188 85.148438 24.730469 C 88.742188 24.75 90.59375 25 93.523438 26.007812 C 95.792969 27.539062 95.941406 28.289062 95.726562 30.140625 C 95.664062 30.863281 95.664062 30.863281 95.597656 31.601562 C 95.542969 31.964844 95.488281 32.332031 95.433594 32.707031 C 93.261719 33.222656 92.046875 33.207031 89.636719 33.199219 C 88.878906 33.199219 88.117188 33.195312 87.332031 33.195312 C 86.535156 33.191406 85.742188 33.1875 84.921875 33.183594 C 84.117188 33.183594 83.316406 33.179688 82.488281 33.179688 C 80.503906 33.171875 78.519531 33.164062 76.535156 33.15625 C 76.847656 34.050781 77.160156 34.941406 77.480469 35.859375 C 83.40625 36.011719 89.328125 36.160156 95.433594 36.3125 C 95.433594 37.207031 95.433594 38.097656 95.433594 39.019531 C 92.539062 39.054688 89.648438 39.082031 86.753906 39.101562 C 85.933594 39.113281 85.117188 39.125 84.277344 39.136719 C 79.664062 39.164062 76.460938 39.140625 72.757812 37.664062 C 70.085938 35.753906 70.484375 34.109375 70.453125 31.859375 C 70.421875 31.453125 70.390625 31.050781 70.359375 30.632812 C 70.324219 28.648438 70.460938 27.589844 72.78125 25.898438 C 76.285156 24.828125 79.113281 24.703125 83.148438 24.757812 Z M 83.148438 24.757812 "/>
<path style=" stroke:none;fill-rule:nonzero;fill:rgb(15.294118%,12.54902%,20.392157%);fill-opacity:1;" d="M 26.457031 27.292969 C 35.128906 27.207031 35.128906 27.207031 37.796875 27.292969 C 39.683594 28.195312 39.683594 28.195312 39.902344 29.945312 C 39.898438 30.648438 39.886719 31.355469 39.863281 32.058594 C 39.863281 32.414062 39.859375 32.773438 39.859375 33.140625 C 39.816406 35.800781 39.816406 35.800781 38.738281 36.3125 C 34.644531 36.375 30.554688 36.332031 26.457031 36.3125 C 26.457031 33.335938 26.457031 30.359375 26.457031 27.292969 Z M 26.457031 27.292969 "/>
<path style=" stroke:none;fill-rule:nonzero;fill:rgb(94.901961%,94.901961%,95.294118%);fill-opacity:1;" d="M 61.238281 24.871094 C 62.074219 24.882812 62.910156 24.894531 63.769531 24.90625 C 65.820312 24.9375 67.871094 24.988281 69.921875 25.039062 C 69.921875 25.78125 69.921875 26.527344 69.921875 27.292969 C 68.839844 27.324219 67.761719 27.347656 66.648438 27.375 C 65.238281 27.417969 63.828125 27.453125 62.421875 27.492188 C 61.351562 27.515625 61.351562 27.515625 60.261719 27.546875 C 56.769531 27.492188 56.769531 27.492188 53.859375 28.195312 C 53.710938 29 53.621094 29.804688 53.558594 30.609375 C 53.519531 31.09375 53.480469 31.582031 53.4375 32.082031 C 53.402344 32.59375 53.363281 33.105469 53.328125 33.636719 C 53.265625 34.40625 53.265625 34.40625 53.203125 35.195312 C 53.101562 36.46875 53.007812 37.742188 52.914062 39.019531 C 51.042969 39.019531 49.171875 39.019531 47.242188 39.019531 C 47.105469 37.195312 47.023438 35.375 46.949219 33.550781 C 46.910156 33.035156 46.871094 32.519531 46.828125 31.992188 C 46.699219 27.699219 46.699219 27.699219 49.046875 26.039062 C 53.160156 24.632812 56.3125 24.734375 61.238281 24.871094 Z M 61.238281 24.871094 "/>
<path style=" stroke:none;fill-rule:nonzero;fill:rgb(19.215686%,16.470588%,23.921569%);fill-opacity:1;" d="M 80.609375 27.175781 C 81.867188 27.179688 81.867188 27.179688 83.148438 27.183594 C 83.988281 27.179688 84.824219 27.175781 85.6875 27.175781 C 87.875 27.292969 87.875 27.292969 89.765625 28.195312 C 89.765625 28.941406 89.765625 29.683594 89.765625 30.449219 C 85.398438 30.449219 81.03125 30.449219 76.535156 30.449219 C 76.535156 27.398438 76.535156 27.398438 80.609375 27.175781 Z M 80.609375 27.175781 "/>
</g>
</svg>
